<svg width="16" height="16" viewBox="0 0 16 16" fill="none" xmlns="http://www.w3.org/2000/svg">
<path d="M8 1C4.13306 1 1 4.13306 1 8C1 11.8669 4.13306 15 8 15C11.8669 15 15 11.8669 15 8C15 4.13306 11.8669 1 8 1ZM8 13.6452C4.88105 13.6452 2.35484 11.119 2.35484 8C2.35484 4.88105 4.88105 2.35484 8 2.35484C11.119 2.35484 13.6452 4.88105 13.6452 8C13.6452 11.119 11.119 13.6452 8 13.6452ZM9.74435 10.6984L7.34798 8.95685C7.26048 8.89193 7.20968 8.79032 7.20968 8.68306V4.04839C7.20968 3.8621 7.3621 3.70968 7.54839 3.70968H8.45161C8.6379 3.70968 8.79032 3.8621 8.79032 4.04839V8.04798L10.6758 9.41976C10.8282 9.52984 10.8593 9.74153 10.7492 9.89395L10.2185 10.625C10.1085 10.7746 9.89677 10.8085 9.74435 10.6984Z" fill="#FF3B30"/>
</svg>
